<?xml version="1.0" encoding="UTF-8" standalone="no"?>
<svg width="168.275mm" height="114.653mm"
 viewBox="0 0 477 325"
 xmlns="http://www.w3.org/2000/svg" xmlns:xlink="http://www.w3.org/1999/xlink"  version="1.2" baseProfile="tiny">
<title>Qt SVG Document</title>
<desc>MATLAB, The MathWorks, Inc. Version 25.1.0.2973910 R2025a Update 1</desc>
<defs>
</defs>
<g fill="none" stroke="black" stroke-width="1" fill-rule="evenodd" stroke-linecap="square" stroke-linejoin="bevel" >

<g fill="#ffffff" fill-opacity="1" stroke="none" transform="matrix(0.749604,0,0,0.750583,-49.9728,-12.0105)"
font-family="Sans Serif" font-size="9" font-weight="400" font-style="normal" 
>
<path vector-effect="none" fill-rule="evenodd" d="M65,15 L702,15 L702,449 L65,449 L65,15"/>
</g>

<g fill="#ffffff" fill-opacity="1" stroke="none" transform="matrix(7.49604e-05,0,0,7.50583e-05,-49.9728,-12.0105)"
font-family="Sans Serif" font-size="9" font-weight="400" font-style="normal" 
>
<path vector-effect="none" fill-rule="evenodd" d="M990000,340000 L990000,4.09e+06 L6.91e+06,4.09e+06 L6.91e+06,340000 L990000,340000"/>
</g>

<g fill="#212121" fill-opacity="1" stroke="none" transform="matrix(0.749604,0,0,0.750583,217.261,320.998)"
font-family="Sans Serif" font-size="9" font-weight="400" font-style="normal" 
>
<path vector-effect="none" fill-rule="evenodd" d="M8.59375,-6.73438 C8.59375,-5.81771 8.29688,-5.09115 7.70313,-4.55469 C7.10938,-4.01823 6.30208,-3.75 5.28125,-3.75 L2.45313,-3.75 L2.45313,0 L1.15625,0 L1.15625,-9.625 L5.20313,-9.625 C6.28646,-9.625 7.1224,-9.3724 7.71094,-8.86719 C8.29948,-8.36198 8.59375,-7.65104 8.59375,-6.73438 M7.28125,-6.71875 C7.28125,-7.96875 6.53646,-8.59375 5.04688,-8.59375 L2.45313,-8.59375 L2.45313,-4.78125 L5.09375,-4.78125 C6.55208,-4.78125 7.28125,-5.42708 7.28125,-6.71875 M12.1563,0.140625 C11.4167,0.140625 10.8594,-0.0572917 10.4844,-0.453125 C10.1094,-0.848958 9.92188,-1.38542 9.92188,-2.0625 C9.92188,-2.83333 10.1745,-3.42188 10.6797,-3.82813 C11.1849,-4.23438 11.9948,-4.45313 13.1094,-4.48438 L14.7813,-4.51563 L14.7813,-4.92188 C14.7813,-5.51563 14.6536,-5.94271 14.3984,-6.20313 C14.1432,-6.46354 13.7396,-6.59375 13.1875,-6.59375 C12.6354,-6.59375 12.2344,-6.5 11.9844,-6.3125 C11.7344,-6.125 11.5833,-5.82813 11.5313,-5.42188 L10.25,-5.53125 C10.4583,-6.86458 11.4479,-7.53125 13.2188,-7.53125 C14.1458,-7.53125 14.8438,-7.31771 15.3125,-6.89063 C15.7813,-6.46354 16.0156,-5.84896 16.0156,-5.04688 L16.0156,-1.85938 C16.0156,-1.49479 16.0651,-1.22135 16.1641,-1.03906 C16.263,-0.856771 16.4479,-0.765625 16.7188,-0.765625 C16.8333,-0.765625 16.9635,-0.78125 17.1094,-0.8125 L17.1094,-0.046875 C16.8073,0.0260417 16.4948,0.0625 16.1719,0.0625 C15.7135,0.0625 15.3802,-0.0572917 15.1719,-0.296875 C14.9635,-0.536458 14.8438,-0.911458 14.8125,-1.42188 L14.7813,-1.42188 C14.4688,-0.848958 14.1016,-0.445313 13.6797,-0.210938 C13.2578,0.0234375 12.75,0.140625 12.1563,0.140625 M12.4375,-0.78125 C12.8854,-0.78125 13.2865,-0.885417 13.6406,-1.09375 C13.9948,-1.30208 14.2734,-1.58333 14.4766,-1.9375 C14.6797,-2.29167 14.7813,-2.66146 14.7813,-3.04688 L14.7813,-3.65625 L13.4375,-3.625 C12.8542,-3.61458 12.4141,-3.55469 12.1172,-3.44531 C11.8203,-3.33594 11.5911,-3.16667 11.4297,-2.9375 C11.2682,-2.70833 11.1875,-2.41146 11.1875,-2.04688 C11.1875,-1.64063 11.2969,-1.32813 11.5156,-1.10938 C11.7344,-0.890625 12.0417,-0.78125 12.4375,-0.78125 M18.0781,0 L18.0781,-5.67188 C18.0781,-6.19271 18.0677,-6.76563 18.0469,-7.39063 L19.2031,-7.39063 C19.2344,-6.55729 19.25,-6.05729 19.25,-5.89063 L19.2813,-5.89063 C19.4792,-6.52604 19.7057,-6.95833 19.9609,-7.1875 C20.2161,-7.41667 20.5781,-7.53125 21.0469,-7.53125 C21.2031,-7.53125 21.3698,-7.51042 21.5469,-7.46875 L21.5469,-6.34375 C21.3802,-6.38542 21.1615,-6.40625 20.8906,-6.40625 C20.3802,-6.40625 19.9896,-6.1875 19.7188,-5.75 C19.4479,-5.3125 19.3125,-4.68229 19.3125,-3.85938 L19.3125,0 L18.0781,0 M24.5938,0.140625 C23.8542,0.140625 23.2969,-0.0572917 22.9219,-0.453125 C22.5469,-0.848958 22.3594,-1.38542 22.3594,-2.0625 C22.3594,-2.83333 22.612,-3.42188 23.1172,-3.82813 C23.6224,-4.23438 24.4323,-4.45313 25.5469,-4.48438 L27.2188,-4.51563 L27.2188,-4.92188 C27.2188,-5.51563 27.0911,-5.94271 26.8359,-6.20313 C26.5807,-6.46354 26.1771,-6.59375 25.625,-6.59375 C25.0729,-6.59375 24.6719,-6.5 24.4219,-6.3125 C24.1719,-6.125 24.0208,-5.82813 23.9688,-5.42188 L22.6875,-5.53125 C22.8958,-6.86458 23.8854,-7.53125 25.6563,-7.53125 C26.5833,-7.53125 27.2813,-7.31771 27.75,-6.89063 C28.2188,-6.46354 28.4531,-5.84896 28.4531,-5.04688 L28.4531,-1.85938 C28.4531,-1.49479 28.5026,-1.22135 28.6016,-1.03906 C28.7005,-0.856771 28.8854,-0.765625 29.1563,-0.765625 C29.2708,-0.765625 29.401,-0.78125 29.5469,-0.8125 L29.5469,-0.046875 C29.2448,0.0260417 28.9323,0.0625 28.6094,0.0625 C28.151,0.0625 27.8177,-0.0572917 27.6094,-0.296875 C27.401,-0.536458 27.2813,-0.911458 27.25,-1.42188 L27.2188,-1.42188 C26.9063,-0.848958 26.5391,-0.445313 26.1172,-0.210938 C25.6953,0.0234375 25.1875,0.140625 24.5938,0.140625 M24.875,-0.78125 C25.3229,-0.78125 25.724,-0.885417 26.0781,-1.09375 C26.4323,-1.30208 26.7109,-1.58333 26.9141,-1.9375 C27.1172,-2.29167 27.2188,-2.66146 27.2188,-3.04688 L27.2188,-3.65625 L25.875,-3.625 C25.2917,-3.61458 24.8516,-3.55469 24.5547,-3.44531 C24.2578,-3.33594 24.0286,-3.16667 23.8672,-2.9375 C23.7057,-2.70833 23.625,-2.41146 23.625,-2.04688 C23.625,-1.64063 23.7344,-1.32813 23.9531,-1.10938 C24.1719,-0.890625 24.4792,-0.78125 24.875,-0.78125 M34.7969,0 L34.7969,-4.6875 C34.7969,-5.40625 34.6979,-5.90104 34.5,-6.17188 C34.3021,-6.44271 33.9479,-6.57813 33.4375,-6.57813 C32.9167,-6.57813 32.5026,-6.3776 32.1953,-5.97656 C31.888,-5.57552 31.7344,-5.01042 31.7344,-4.28125 L31.7344,0 L30.5156,0 L30.5156,-5.8125 C30.5156,-6.67708 30.5052,-7.20313 30.4844,-7.39063 L31.6406,-7.39063 C31.6406,-7.36979 31.6432,-7.3099 31.6484,-7.21094 C31.6536,-7.11198 31.6615,-6.9974 31.6719,-6.86719 C31.6823,-6.73698 31.6875,-6.48958 31.6875,-6.125 L31.7188,-6.125 C31.9792,-6.65625 32.2813,-7.02344 32.625,-7.22656 C32.9688,-7.42969 33.3854,-7.53125 33.875,-7.53125 C34.4375,-7.53125 34.8802,-7.41927 35.2031,-7.19531 C35.526,-6.97135 35.7552,-6.61458 35.8906,-6.125 L35.9063,-6.125 C36.1563,-6.625 36.4635,-6.98438 36.8281,-7.20313 C37.1927,-7.42188 37.6302,-7.53125 38.1406,-7.53125 C38.8906,-7.53125 39.4349,-7.32813 39.7734,-6.92188 C40.112,-6.51563 40.2813,-5.84896 40.2813,-4.92188 L40.2813,0 L39.0625,0 L39.0625,-4.6875 C39.0625,-5.40625 38.9661,-5.90104 38.7734,-6.17188 C38.5807,-6.44271 38.2292,-6.57813 37.7188,-6.57813 C37.1771,-6.57813 36.7578,-6.38021 36.4609,-5.98438 C36.1641,-5.58854 36.0156,-5.02083 36.0156,-4.28125 L36.0156,0 L34.7969,0 M43.0938,-3.4375 C43.0938,-2.59375 43.2682,-1.9401 43.6172,-1.47656 C43.9661,-1.01302 44.4792,-0.78125 45.1563,-0.78125 C45.6875,-0.78125 46.1146,-0.888021 46.4375,-1.10156 C46.7604,-1.3151 46.9792,-1.58854 47.0938,-1.92188 L48.1719,-1.60938 C47.724,-0.442708 46.7188,0.140625 45.1563,0.140625 C44.0625,0.140625 43.2292,-0.184896 42.6563,-0.835938 C42.0833,-1.48698 41.7969,-2.45833 41.7969,-3.75 C41.7969,-4.96875 42.0833,-5.90365 42.6563,-6.55469 C43.2292,-7.20573 44.0469,-7.53125 45.1094,-7.53125 C47.2865,-7.53125 48.375,-6.22396 48.375,-3.60938 L48.375,-3.4375 L43.0938,-3.4375 M47.0938,-4.375 C47.0313,-5.15625 46.8359,-5.72656 46.5078,-6.08594 C46.1797,-6.44531 45.7083,-6.625 45.0938,-6.625 C44.4896,-6.625 44.013,-6.42448 43.6641,-6.02344 C43.3151,-5.6224 43.1302,-5.07292 43.1094,-4.375 L47.0938,-4.375 M52.7656,-0.0625 C52.3594,0.0520833 51.9479,0.109375 51.5313,0.109375 C50.5417,0.109375 50.0469,-0.447917 50.0469,-1.5625 L50.0469,-6.5 L49.2031,-6.5 L49.2031,-7.39063 L50.0938,-7.39063 L50.4688,-9.04688 L51.2813,-9.04688 L51.2813,-7.39063 L52.6563,-7.39063 L52.6563,-6.5 L51.2813,-6.5 L51.2813,-1.82813 C51.2813,-1.47396 51.3385,-1.22656 51.4531,-1.08594 C51.5677,-0.945313 51.7708,-0.875 52.0625,-0.875 C52.2292,-0.875 52.4635,-0.90625 52.7656,-0.96875 L52.7656,-0.0625 M54.75,-3.4375 C54.75,-2.59375 54.9245,-1.9401 55.2734,-1.47656 C55.6224,-1.01302 56.1354,-0.78125 56.8125,-0.78125 C57.3438,-0.78125 57.7708,-0.888021 58.0938,-1.10156 C58.4167,-1.3151 58.6354,-1.58854 58.75,-1.92188 L59.8281,-1.60938 C59.3802,-0.442708 58.375,0.140625 56.8125,0.140625 C55.7188,0.140625 54.8854,-0.184896 54.3125,-0.835938 C53.7396,-1.48698 53.4531,-2.45833 53.4531,-3.75 C53.4531,-4.96875 53.7396,-5.90365 54.3125,-6.55469 C54.8854,-7.20573 55.7031,-7.53125 56.7656,-7.53125 C58.9427,-7.53125 60.0313,-6.22396 60.0313,-3.60938 L60.0313,-3.4375 L54.75,-3.4375 M58.75,-4.375 C58.6875,-5.15625 58.4922,-5.72656 58.1641,-6.08594 C57.8359,-6.44531 57.3646,-6.625 56.75,-6.625 C56.1458,-6.625 55.6693,-6.42448 55.3203,-6.02344 C54.9714,-5.6224 54.7865,-5.07292 54.7656,-4.375 L58.75,-4.375 M61.6094,0 L61.6094,-5.67188 C61.6094,-6.19271 61.599,-6.76563 61.5781,-7.39063 L62.7344,-7.39063 C62.7656,-6.55729 62.7813,-6.05729 62.7813,-5.89063 L62.8125,-5.89063 C63.0104,-6.52604 63.237,-6.95833 63.4922,-7.1875 C63.7474,-7.41667 64.1094,-7.53125 64.5781,-7.53125 C64.7344,-7.53125 64.901,-7.51042 65.0781,-7.46875 L65.0781,-6.34375 C64.9115,-6.38542 64.6927,-6.40625 64.4219,-6.40625 C63.9115,-6.40625 63.5208,-6.1875 63.25,-5.75 C62.9792,-5.3125 62.8438,-4.68229 62.8438,-3.85938 L62.8438,0 L61.6094,0 M76.375,-3.73438 C76.375,-1.15104 75.4688,0.140625 73.6563,0.140625 C72.5104,0.140625 71.7448,-0.291667 71.3594,-1.15625 L71.3125,-1.15625 C71.3333,-1.11458 71.3438,-0.723958 71.3438,0.015625 L71.3438,2.90625 L70.1094,2.90625 L70.1094,-5.89063 C70.1094,-6.65104 70.099,-7.15104 70.0781,-7.39063 L71.2656,-7.39063 C71.2656,-7.38021 71.2708,-7.31771 71.2813,-7.20313 C71.2917,-7.08854 71.3021,-6.91667 71.3125,-6.6875 C71.3229,-6.45833 71.3281,-6.29688 71.3281,-6.20313 L71.3594,-6.20313 C71.5781,-6.66146 71.8672,-6.9974 72.2266,-7.21094 C72.5859,-7.42448 73.0625,-7.53125 73.6563,-7.53125 C74.5625,-7.53125 75.2422,-7.22396 75.6953,-6.60938 C76.1484,-5.99479 76.375,-5.03646 76.375,-3.73438 M75.0781,-3.70313 C75.0781,-4.73438 74.9401,-5.47135 74.6641,-5.91406 C74.388,-6.35677 73.9427,-6.57813 73.3281,-6.57813 C72.849,-6.57813 72.4714,-6.47656 72.1953,-6.27344 C71.9193,-6.07031 71.7083,-5.75 71.5625,-5.3125 C71.4167,-4.875 71.3438,-4.30729 71.3438,-3.60938 C71.3438,-2.64063 71.5,-1.92448 71.8125,-1.46094 C72.125,-0.997396 72.6302,-0.765625 73.3281,-0.765625 C73.9323,-0.765625 74.375,-0.992188 74.6563,-1.44531 C74.9375,-1.89844 75.0781,-2.65104 75.0781,-3.70313 "/>
</g>

<g fill="#212121" fill-opacity="1" stroke="#212121" stroke-opacity="1" stroke-width="0.666667" stroke-linecap="square" stroke-linejoin="round" transform="matrix(0.749604,0,0,0.750583,-49.9728,-12.0105)"
font-family="Sans Serif" font-size="9" font-weight="400" font-style="normal" 
>
<polyline fill="none" vector-effect="none" points="99,409 691,409 " />
<polyline fill="none" vector-effect="none" points="99,34 691,34 " />
<polyline fill="none" vector-effect="none" points="99,409 99,403.08 " />
<polyline fill="none" vector-effect="none" points="99,39.92 99,34 " />
<polyline fill="none" vector-effect="none" points="164.778,409 164.778,403.08 " />
<polyline fill="none" vector-effect="none" points="164.778,39.92 164.778,34 " />
<polyline fill="none" vector-effect="none" points="230.556,409 230.556,403.08 " />
<polyline fill="none" vector-effect="none" points="230.556,39.92 230.556,34 " />
<polyline fill="none" vector-effect="none" points="296.333,409 296.333,403.08 " />
<polyline fill="none" vector-effect="none" points="296.333,39.92 296.333,34 " />
<polyline fill="none" vector-effect="none" points="362.111,409 362.111,403.08 " />
<polyline fill="none" vector-effect="none" points="362.111,39.92 362.111,34 " />
<polyline fill="none" vector-effect="none" points="427.889,409 427.889,403.08 " />
<polyline fill="none" vector-effect="none" points="427.889,39.92 427.889,34 " />
<polyline fill="none" vector-effect="none" points="493.667,409 493.667,403.08 " />
<polyline fill="none" vector-effect="none" points="493.667,39.92 493.667,34 " />
<polyline fill="none" vector-effect="none" points="559.444,409 559.444,403.08 " />
<polyline fill="none" vector-effect="none" points="559.444,39.92 559.444,34 " />
<polyline fill="none" vector-effect="none" points="625.222,409 625.222,403.08 " />
<polyline fill="none" vector-effect="none" points="625.222,39.92 625.222,34 " />
<polyline fill="none" vector-effect="none" points="691,409 691,403.08 " />
<polyline fill="none" vector-effect="none" points="691,39.92 691,34 " />
</g>

<g fill="#212121" fill-opacity="1" stroke="none" transform="matrix(0.749604,0,0,0.750583,14.8679,307.988)"
font-family="Sans Serif" font-size="9" font-weight="400" font-style="normal" 
>
<path vector-effect="none" fill-rule="evenodd" d="M6.71875,-4.46875 C6.71875,-2.97917 6.45573,-1.84115 5.92969,-1.05469 C5.40365,-0.268229 4.625,0.125 3.59375,0.125 C2.57292,0.125 1.80469,-0.265625 1.28906,-1.04688 C0.773438,-1.82813 0.515625,-2.96875 0.515625,-4.46875 C0.515625,-6.01042 0.765625,-7.16406 1.26563,-7.92969 C1.76563,-8.69531 2.55729,-9.07813 3.64063,-9.07813 C4.69271,-9.07813 5.46875,-8.6901 5.96875,-7.91406 C6.46875,-7.13802 6.71875,-5.98958 6.71875,-4.46875 M5.5625,-4.46875 C5.5625,-5.76042 5.41406,-6.69792 5.11719,-7.28125 C4.82031,-7.86458 4.32813,-8.15625 3.64063,-8.15625 C2.93229,-8.15625 2.42448,-7.86979 2.11719,-7.29688 C1.8099,-6.72396 1.65625,-5.78125 1.65625,-4.46875 C1.65625,-3.20833 1.8125,-2.28385 2.125,-1.69531 C2.4375,-1.10677 2.93229,-0.8125 3.60938,-0.8125 C4.28646,-0.8125 4.78125,-1.11198 5.09375,-1.71094 C5.40625,-2.3099 5.5625,-3.22917 5.5625,-4.46875 M8.40625,0 L8.40625,-1.39063 L9.64063,-1.39063 L9.64063,0 L8.40625,0 M17.5469,-4.46875 C17.5469,-2.97917 17.2839,-1.84115 16.7578,-1.05469 C16.2318,-0.268229 15.4531,0.125 14.4219,0.125 C13.401,0.125 12.6328,-0.265625 12.1172,-1.04688 C11.6016,-1.82813 11.3438,-2.96875 11.3438,-4.46875 C11.3438,-6.01042 11.5938,-7.16406 12.0938,-7.92969 C12.5938,-8.69531 13.3854,-9.07813 14.4688,-9.07813 C15.5208,-9.07813 16.2969,-8.6901 16.7969,-7.91406 C17.2969,-7.13802 17.5469,-5.98958 17.5469,-4.46875 M16.3906,-4.46875 C16.3906,-5.76042 16.2422,-6.69792 15.9453,-7.28125 C15.6484,-7.86458 15.1563,-8.15625 14.4688,-8.15625 C13.7604,-8.15625 13.2526,-7.86979 12.9453,-7.29688 C12.638,-6.72396 12.4844,-5.78125 12.4844,-4.46875 C12.4844,-3.20833 12.6406,-2.28385 12.9531,-1.69531 C13.2656,-1.10677 13.7604,-0.8125 14.4375,-0.8125 C15.1146,-0.8125 15.6094,-1.11198 15.9219,-1.71094 C16.2344,-2.3099 16.3906,-3.22917 16.3906,-4.46875 M24.7344,-2.90625 C24.7344,-1.96875 24.4531,-1.22917 23.8906,-0.6875 C23.3281,-0.145833 22.5521,0.125 21.5625,0.125 C20.7292,0.125 20.0547,-0.0572917 19.5391,-0.421875 C19.0234,-0.786458 18.6979,-1.3125 18.5625,-2 L19.7188,-2.14063 C19.9583,-1.25521 20.5781,-0.8125 21.5781,-0.8125 C22.1927,-0.8125 22.6745,-0.997396 23.0234,-1.36719 C23.3724,-1.73698 23.5469,-2.24479 23.5469,-2.89063 C23.5469,-3.45313 23.3724,-3.90885 23.0234,-4.25781 C22.6745,-4.60677 22.2031,-4.78125 21.6094,-4.78125 C21.2969,-4.78125 21.0078,-4.73177 20.7422,-4.63281 C20.4766,-4.53385 20.2083,-4.36458 19.9375,-4.125 L18.8281,-4.125 L19.125,-8.9375 L24.2031,-8.9375 L24.2031,-7.96875 L20.1719,-7.96875 L20,-5.14063 C20.4896,-5.51563 21.1042,-5.70313 21.8438,-5.70313 C22.7188,-5.70313 23.4193,-5.44531 23.9453,-4.92969 C24.4714,-4.41406 24.7344,-3.73958 24.7344,-2.90625 "/>
</g>

<g fill="#212121" fill-opacity="1" stroke="none" transform="matrix(0.749604,0,0,0.750583,66.7988,307.988)"
font-family="Sans Serif" font-size="9" font-weight="400" font-style="normal" 
>
<path vector-effect="none" fill-rule="evenodd" d="M6.71875,-4.46875 C6.71875,-2.97917 6.45573,-1.84115 5.92969,-1.05469 C5.40365,-0.268229 4.625,0.125 3.59375,0.125 C2.57292,0.125 1.80469,-0.265625 1.28906,-1.04688 C0.773438,-1.82813 0.515625,-2.96875 0.515625,-4.46875 C0.515625,-6.01042 0.765625,-7.16406 1.26563,-7.92969 C1.76563,-8.69531 2.55729,-9.07813 3.64063,-9.07813 C4.69271,-9.07813 5.46875,-8.6901 5.96875,-7.91406 C6.46875,-7.13802 6.71875,-5.98958 6.71875,-4.46875 M5.5625,-4.46875 C5.5625,-5.76042 5.41406,-6.69792 5.11719,-7.28125 C4.82031,-7.86458 4.32813,-8.15625 3.64063,-8.15625 C2.93229,-8.15625 2.42448,-7.86979 2.11719,-7.29688 C1.8099,-6.72396 1.65625,-5.78125 1.65625,-4.46875 C1.65625,-3.20833 1.8125,-2.28385 2.125,-1.69531 C2.4375,-1.10677 2.93229,-0.8125 3.60938,-0.8125 C4.28646,-0.8125 4.78125,-1.11198 5.09375,-1.71094 C5.40625,-2.3099 5.5625,-3.22917 5.5625,-4.46875 M8.40625,0 L8.40625,-1.39063 L9.64063,-1.39063 L9.64063,0 L8.40625,0 M11.8125,0 L11.8125,-0.96875 L14.0938,-0.96875 L14.0938,-7.85938 L12.0781,-6.40625 L12.0781,-7.48438 L14.1875,-8.9375 L15.25,-8.9375 L15.25,-0.96875 L17.4219,-0.96875 L17.4219,0 L11.8125,0"/>
</g>

<g fill="#212121" fill-opacity="1" stroke="none" transform="matrix(0.749604,0,0,0.750583,113.483,307.988)"
font-family="Sans Serif" font-size="9" font-weight="400" font-style="normal" 
>
<path vector-effect="none" fill-rule="evenodd" d="M6.71875,-4.46875 C6.71875,-2.97917 6.45573,-1.84115 5.92969,-1.05469 C5.40365,-0.268229 4.625,0.125 3.59375,0.125 C2.57292,0.125 1.80469,-0.265625 1.28906,-1.04688 C0.773438,-1.82813 0.515625,-2.96875 0.515625,-4.46875 C0.515625,-6.01042 0.765625,-7.16406 1.26563,-7.92969 C1.76563,-8.69531 2.55729,-9.07813 3.64063,-9.07813 C4.69271,-9.07813 5.46875,-8.6901 5.96875,-7.91406 C6.46875,-7.13802 6.71875,-5.98958 6.71875,-4.46875 M5.5625,-4.46875 C5.5625,-5.76042 5.41406,-6.69792 5.11719,-7.28125 C4.82031,-7.86458 4.32813,-8.15625 3.64063,-8.15625 C2.93229,-8.15625 2.42448,-7.86979 2.11719,-7.29688 C1.8099,-6.72396 1.65625,-5.78125 1.65625,-4.46875 C1.65625,-3.20833 1.8125,-2.28385 2.125,-1.69531 C2.4375,-1.10677 2.93229,-0.8125 3.60938,-0.8125 C4.28646,-0.8125 4.78125,-1.11198 5.09375,-1.71094 C5.40625,-2.3099 5.5625,-3.22917 5.5625,-4.46875 M8.40625,0 L8.40625,-1.39063 L9.64063,-1.39063 L9.64063,0 L8.40625,0 M11.8125,0 L11.8125,-0.96875 L14.0938,-0.96875 L14.0938,-7.85938 L12.0781,-6.40625 L12.0781,-7.48438 L14.1875,-8.9375 L15.25,-8.9375 L15.25,-0.96875 L17.4219,-0.96875 L17.4219,0 L11.8125,0 M24.7344,-2.90625 C24.7344,-1.96875 24.4531,-1.22917 23.8906,-0.6875 C23.3281,-0.145833 22.5521,0.125 21.5625,0.125 C20.7292,0.125 20.0547,-0.0572917 19.5391,-0.421875 C19.0234,-0.786458 18.6979,-1.3125 18.5625,-2 L19.7188,-2.14063 C19.9583,-1.25521 20.5781,-0.8125 21.5781,-0.8125 C22.1927,-0.8125 22.6745,-0.997396 23.0234,-1.36719 C23.3724,-1.73698 23.5469,-2.24479 23.5469,-2.89063 C23.5469,-3.45313 23.3724,-3.90885 23.0234,-4.25781 C22.6745,-4.60677 22.2031,-4.78125 21.6094,-4.78125 C21.2969,-4.78125 21.0078,-4.73177 20.7422,-4.63281 C20.4766,-4.53385 20.2083,-4.36458 19.9375,-4.125 L18.8281,-4.125 L19.125,-8.9375 L24.2031,-8.9375 L24.2031,-7.96875 L20.1719,-7.96875 L20,-5.14063 C20.4896,-5.51563 21.1042,-5.70313 21.8438,-5.70313 C22.7188,-5.70313 23.4193,-5.44531 23.9453,-4.92969 C24.4714,-4.41406 24.7344,-3.73958 24.7344,-2.90625 "/>
</g>

<g fill="#212121" fill-opacity="1" stroke="none" transform="matrix(0.749604,0,0,0.750583,165.413,307.988)"
font-family="Sans Serif" font-size="9" font-weight="400" font-style="normal" 
>
<path vector-effect="none" fill-rule="evenodd" d="M6.71875,-4.46875 C6.71875,-2.97917 6.45573,-1.84115 5.92969,-1.05469 C5.40365,-0.268229 4.625,0.125 3.59375,0.125 C2.57292,0.125 1.80469,-0.265625 1.28906,-1.04688 C0.773438,-1.82813 0.515625,-2.96875 0.515625,-4.46875 C0.515625,-6.01042 0.765625,-7.16406 1.26563,-7.92969 C1.76563,-8.69531 2.55729,-9.07813 3.64063,-9.07813 C4.69271,-9.07813 5.46875,-8.6901 5.96875,-7.91406 C6.46875,-7.13802 6.71875,-5.98958 6.71875,-4.46875 M5.5625,-4.46875 C5.5625,-5.76042 5.41406,-6.69792 5.11719,-7.28125 C4.82031,-7.86458 4.32813,-8.15625 3.64063,-8.15625 C2.93229,-8.15625 2.42448,-7.86979 2.11719,-7.29688 C1.8099,-6.72396 1.65625,-5.78125 1.65625,-4.46875 C1.65625,-3.20833 1.8125,-2.28385 2.125,-1.69531 C2.4375,-1.10677 2.93229,-0.8125 3.60938,-0.8125 C4.28646,-0.8125 4.78125,-1.11198 5.09375,-1.71094 C5.40625,-2.3099 5.5625,-3.22917 5.5625,-4.46875 M8.40625,0 L8.40625,-1.39063 L9.64063,-1.39063 L9.64063,0 L8.40625,0 M11.4844,0 L11.4844,-0.8125 C11.7031,-1.30208 11.9661,-1.73698 12.2734,-2.11719 C12.5807,-2.4974 12.9063,-2.84115 13.25,-3.14844 C13.5938,-3.45573 13.9349,-3.73958 14.2734,-4 C14.612,-4.26042 14.9167,-4.52344 15.1875,-4.78906 C15.4583,-5.05469 15.6771,-5.33073 15.8438,-5.61719 C16.0104,-5.90365 16.0938,-6.22917 16.0938,-6.59375 C16.0938,-7.08333 15.9505,-7.46354 15.6641,-7.73438 C15.3776,-8.00521 14.974,-8.14063 14.4531,-8.14063 C13.974,-8.14063 13.5755,-8.00781 13.2578,-7.74219 C12.9401,-7.47656 12.7552,-7.10417 12.7031,-6.625 L11.5313,-6.73438 C11.6146,-7.45313 11.9193,-8.02344 12.4453,-8.44531 C12.9714,-8.86719 13.6406,-9.07813 14.4531,-9.07813 C15.3594,-9.07813 16.0547,-8.86458 16.5391,-8.4375 C17.0234,-8.01042 17.2656,-7.40625 17.2656,-6.625 C17.2656,-6.28125 17.1849,-5.9375 17.0234,-5.59375 C16.862,-5.25 16.625,-4.90625 16.3125,-4.5625 C16,-4.21875 15.401,-3.6875 14.5156,-2.96875 C14.0365,-2.57292 13.651,-2.21615 13.3594,-1.89844 C13.0677,-1.58073 12.8594,-1.27083 12.7344,-0.96875 L17.4063,-0.96875 L17.4063,0 L11.4844,0"/>
</g>

<g fill="#212121" fill-opacity="1" stroke="none" transform="matrix(0.749604,0,0,0.750583,212.097,307.988)"
font-family="Sans Serif" font-size="9" font-weight="400" font-style="normal" 
>
<path vector-effect="none" fill-rule="evenodd" d="M6.71875,-4.46875 C6.71875,-2.97917 6.45573,-1.84115 5.92969,-1.05469 C5.40365,-0.268229 4.625,0.125 3.59375,0.125 C2.57292,0.125 1.80469,-0.265625 1.28906,-1.04688 C0.773438,-1.82813 0.515625,-2.96875 0.515625,-4.46875 C0.515625,-6.01042 0.765625,-7.16406 1.26563,-7.92969 C1.76563,-8.69531 2.55729,-9.07813 3.64063,-9.07813 C4.69271,-9.07813 5.46875,-8.6901 5.96875,-7.91406 C6.46875,-7.13802 6.71875,-5.98958 6.71875,-4.46875 M5.5625,-4.46875 C5.5625,-5.76042 5.41406,-6.69792 5.11719,-7.28125 C4.82031,-7.86458 4.32813,-8.15625 3.64063,-8.15625 C2.93229,-8.15625 2.42448,-7.86979 2.11719,-7.29688 C1.8099,-6.72396 1.65625,-5.78125 1.65625,-4.46875 C1.65625,-3.20833 1.8125,-2.28385 2.125,-1.69531 C2.4375,-1.10677 2.93229,-0.8125 3.60938,-0.8125 C4.28646,-0.8125 4.78125,-1.11198 5.09375,-1.71094 C5.40625,-2.3099 5.5625,-3.22917 5.5625,-4.46875 M8.40625,0 L8.40625,-1.39063 L9.64063,-1.39063 L9.64063,0 L8.40625,0 M11.4844,0 L11.4844,-0.8125 C11.7031,-1.30208 11.9661,-1.73698 12.2734,-2.11719 C12.5807,-2.4974 12.9063,-2.84115 13.25,-3.14844 C13.5938,-3.45573 13.9349,-3.73958 14.2734,-4 C14.612,-4.26042 14.9167,-4.52344 15.1875,-4.78906 C15.4583,-5.05469 15.6771,-5.33073 15.8438,-5.61719 C16.0104,-5.90365 16.0938,-6.22917 16.0938,-6.59375 C16.0938,-7.08333 15.9505,-7.46354 15.6641,-7.73438 C15.3776,-8.00521 14.974,-8.14063 14.4531,-8.14063 C13.974,-8.14063 13.5755,-8.00781 13.2578,-7.74219 C12.9401,-7.47656 12.7552,-7.10417 12.7031,-6.625 L11.5313,-6.73438 C11.6146,-7.45313 11.9193,-8.02344 12.4453,-8.44531 C12.9714,-8.86719 13.6406,-9.07813 14.4531,-9.07813 C15.3594,-9.07813 16.0547,-8.86458 16.5391,-8.4375 C17.0234,-8.01042 17.2656,-7.40625 17.2656,-6.625 C17.2656,-6.28125 17.1849,-5.9375 17.0234,-5.59375 C16.862,-5.25 16.625,-4.90625 16.3125,-4.5625 C16,-4.21875 15.401,-3.6875 14.5156,-2.96875 C14.0365,-2.57292 13.651,-2.21615 13.3594,-1.89844 C13.0677,-1.58073 12.8594,-1.27083 12.7344,-0.96875 L17.4063,-0.96875 L17.4063,0 L11.4844,0 M24.7344,-2.90625 C24.7344,-1.96875 24.4531,-1.22917 23.8906,-0.6875 C23.3281,-0.145833 22.5521,0.125 21.5625,0.125 C20.7292,0.125 20.0547,-0.0572917 19.5391,-0.421875 C19.0234,-0.786458 18.6979,-1.3125 18.5625,-2 L19.7188,-2.14063 C19.9583,-1.25521 20.5781,-0.8125 21.5781,-0.8125 C22.1927,-0.8125 22.6745,-0.997396 23.0234,-1.36719 C23.3724,-1.73698 23.5469,-2.24479 23.5469,-2.89063 C23.5469,-3.45313 23.3724,-3.90885 23.0234,-4.25781 C22.6745,-4.60677 22.2031,-4.78125 21.6094,-4.78125 C21.2969,-4.78125 21.0078,-4.73177 20.7422,-4.63281 C20.4766,-4.53385 20.2083,-4.36458 19.9375,-4.125 L18.8281,-4.125 L19.125,-8.9375 L24.2031,-8.9375 L24.2031,-7.96875 L20.1719,-7.96875 L20,-5.14063 C20.4896,-5.51563 21.1042,-5.70313 21.8438,-5.70313 C22.7188,-5.70313 23.4193,-5.44531 23.9453,-4.92969 C24.4714,-4.41406 24.7344,-3.73958 24.7344,-2.90625 "/>
</g>

<g fill="#212121" fill-opacity="1" stroke="none" transform="matrix(0.749604,0,0,0.750583,264.028,307.988)"
font-family="Sans Serif" font-size="9" font-weight="400" font-style="normal" 
>
<path vector-effect="none" fill-rule="evenodd" d="M6.71875,-4.46875 C6.71875,-2.97917 6.45573,-1.84115 5.92969,-1.05469 C5.40365,-0.268229 4.625,0.125 3.59375,0.125 C2.57292,0.125 1.80469,-0.265625 1.28906,-1.04688 C0.773438,-1.82813 0.515625,-2.96875 0.515625,-4.46875 C0.515625,-6.01042 0.765625,-7.16406 1.26563,-7.92969 C1.76563,-8.69531 2.55729,-9.07813 3.64063,-9.07813 C4.69271,-9.07813 5.46875,-8.6901 5.96875,-7.91406 C6.46875,-7.13802 6.71875,-5.98958 6.71875,-4.46875 M5.5625,-4.46875 C5.5625,-5.76042 5.41406,-6.69792 5.11719,-7.28125 C4.82031,-7.86458 4.32813,-8.15625 3.64063,-8.15625 C2.93229,-8.15625 2.42448,-7.86979 2.11719,-7.29688 C1.8099,-6.72396 1.65625,-5.78125 1.65625,-4.46875 C1.65625,-3.20833 1.8125,-2.28385 2.125,-1.69531 C2.4375,-1.10677 2.93229,-0.8125 3.60938,-0.8125 C4.28646,-0.8125 4.78125,-1.11198 5.09375,-1.71094 C5.40625,-2.3099 5.5625,-3.22917 5.5625,-4.46875 M8.40625,0 L8.40625,-1.39063 L9.64063,-1.39063 L9.64063,0 L8.40625,0 M17.4844,-2.46875 C17.4844,-1.64583 17.2214,-1.00781 16.6953,-0.554688 C16.1693,-0.101563 15.4219,0.125 14.4531,0.125 C13.5469,0.125 12.8229,-0.078125 12.2813,-0.484375 C11.7396,-0.890625 11.4219,-1.49479 11.3281,-2.29688 L12.5,-2.40625 C12.6563,-1.34375 13.3073,-0.8125 14.4531,-0.8125 C15.026,-0.8125 15.4766,-0.955729 15.8047,-1.24219 C16.1328,-1.52865 16.2969,-1.94792 16.2969,-2.5 C16.2969,-2.98958 16.1094,-3.3724 15.7344,-3.64844 C15.3594,-3.92448 14.8177,-4.0625 14.1094,-4.0625 L13.4688,-4.0625 L13.4688,-5.04688 L14.0938,-5.04688 C14.7188,-5.04688 15.2031,-5.18229 15.5469,-5.45313 C15.8906,-5.72396 16.0625,-6.10417 16.0625,-6.59375 C16.0625,-7.07292 15.9219,-7.45052 15.6406,-7.72656 C15.3594,-8.0026 14.9427,-8.14063 14.3906,-8.14063 C13.8906,-8.14063 13.4844,-8.01042 13.1719,-7.75 C12.8594,-7.48958 12.6771,-7.125 12.625,-6.65625 L11.4688,-6.75 C11.5625,-7.47917 11.8698,-8.04948 12.3906,-8.46094 C12.9115,-8.8724 13.5833,-9.07813 14.4063,-9.07813 C15.3021,-9.07813 15.9974,-8.86979 16.4922,-8.45313 C16.987,-8.03646 17.2344,-7.45313 17.2344,-6.70313 C17.2344,-6.14063 17.0755,-5.67969 16.7578,-5.32031 C16.4401,-4.96094 15.974,-4.71875 15.3594,-4.59375 L15.3594,-4.5625 C16.0365,-4.48958 16.5599,-4.26563 16.9297,-3.89063 C17.2995,-3.51563 17.4844,-3.04167 17.4844,-2.46875 "/>
</g>

<g fill="#212121" fill-opacity="1" stroke="none" transform="matrix(0.749604,0,0,0.750583,310.712,307.988)"
font-family="Sans Serif" font-size="9" font-weight="400" font-style="normal" 
>
<path vector-effect="none" fill-rule="evenodd" d="M6.71875,-4.46875 C6.71875,-2.97917 6.45573,-1.84115 5.92969,-1.05469 C5.40365,-0.268229 4.625,0.125 3.59375,0.125 C2.57292,0.125 1.80469,-0.265625 1.28906,-1.04688 C0.773438,-1.82813 0.515625,-2.96875 0.515625,-4.46875 C0.515625,-6.01042 0.765625,-7.16406 1.26563,-7.92969 C1.76563,-8.69531 2.55729,-9.07813 3.64063,-9.07813 C4.69271,-9.07813 5.46875,-8.6901 5.96875,-7.91406 C6.46875,-7.13802 6.71875,-5.98958 6.71875,-4.46875 M5.5625,-4.46875 C5.5625,-5.76042 5.41406,-6.69792 5.11719,-7.28125 C4.82031,-7.86458 4.32813,-8.15625 3.64063,-8.15625 C2.93229,-8.15625 2.42448,-7.86979 2.11719,-7.29688 C1.8099,-6.72396 1.65625,-5.78125 1.65625,-4.46875 C1.65625,-3.20833 1.8125,-2.28385 2.125,-1.69531 C2.4375,-1.10677 2.93229,-0.8125 3.60938,-0.8125 C4.28646,-0.8125 4.78125,-1.11198 5.09375,-1.71094 C5.40625,-2.3099 5.5625,-3.22917 5.5625,-4.46875 M8.40625,0 L8.40625,-1.39063 L9.64063,-1.39063 L9.64063,0 L8.40625,0 M17.4844,-2.46875 C17.4844,-1.64583 17.2214,-1.00781 16.6953,-0.554688 C16.1693,-0.101563 15.4219,0.125 14.4531,0.125 C13.5469,0.125 12.8229,-0.078125 12.2813,-0.484375 C11.7396,-0.890625 11.4219,-1.49479 11.3281,-2.29688 L12.5,-2.40625 C12.6563,-1.34375 13.3073,-0.8125 14.4531,-0.8125 C15.026,-0.8125 15.4766,-0.955729 15.8047,-1.24219 C16.1328,-1.52865 16.2969,-1.94792 16.2969,-2.5 C16.2969,-2.98958 16.1094,-3.3724 15.7344,-3.64844 C15.3594,-3.92448 14.8177,-4.0625 14.1094,-4.0625 L13.4688,-4.0625 L13.4688,-5.04688 L14.0938,-5.04688 C14.7188,-5.04688 15.2031,-5.18229 15.5469,-5.45313 C15.8906,-5.72396 16.0625,-6.10417 16.0625,-6.59375 C16.0625,-7.07292 15.9219,-7.45052 15.6406,-7.72656 C15.3594,-8.0026 14.9427,-8.14063 14.3906,-8.14063 C13.8906,-8.14063 13.4844,-8.01042 13.1719,-7.75 C12.8594,-7.48958 12.6771,-7.125 12.625,-6.65625 L11.4688,-6.75 C11.5625,-7.47917 11.8698,-8.04948 12.3906,-8.46094 C12.9115,-8.8724 13.5833,-9.07813 14.4063,-9.07813 C15.3021,-9.07813 15.9974,-8.86979 16.4922,-8.45313 C16.987,-8.03646 17.2344,-7.45313 17.2344,-6.70313 C17.2344,-6.14063 17.0755,-5.67969 16.7578,-5.32031 C16.4401,-4.96094 15.974,-4.71875 15.3594,-4.59375 L15.3594,-4.5625 C16.0365,-4.48958 16.5599,-4.26563 16.9297,-3.89063 C17.2995,-3.51563 17.4844,-3.04167 17.4844,-2.46875 M24.7344,-2.90625 C24.7344,-1.96875 24.4531,-1.22917 23.8906,-0.6875 C23.3281,-0.145833 22.5521,0.125 21.5625,0.125 C20.7292,0.125 20.0547,-0.0572917 19.5391,-0.421875 C19.0234,-0.786458 18.6979,-1.3125 18.5625,-2 L19.7188,-2.14063 C19.9583,-1.25521 20.5781,-0.8125 21.5781,-0.8125 C22.1927,-0.8125 22.6745,-0.997396 23.0234,-1.36719 C23.3724,-1.73698 23.5469,-2.24479 23.5469,-2.89063 C23.5469,-3.45313 23.3724,-3.90885 23.0234,-4.25781 C22.6745,-4.60677 22.2031,-4.78125 21.6094,-4.78125 C21.2969,-4.78125 21.0078,-4.73177 20.7422,-4.63281 C20.4766,-4.53385 20.2083,-4.36458 19.9375,-4.125 L18.8281,-4.125 L19.125,-8.9375 L24.2031,-8.9375 L24.2031,-7.96875 L20.1719,-7.96875 L20,-5.14063 C20.4896,-5.51563 21.1042,-5.70313 21.8438,-5.70313 C22.7188,-5.70313 23.4193,-5.44531 23.9453,-4.92969 C24.4714,-4.41406 24.7344,-3.73958 24.7344,-2.90625 "/>
</g>

<g fill="#212121" fill-opacity="1" stroke="none" transform="matrix(0.749604,0,0,0.750583,362.643,307.988)"
font-family="Sans Serif" font-size="9" font-weight="400" font-style="normal" 
>
<path vector-effect="none" fill-rule="evenodd" d="M6.71875,-4.46875 C6.71875,-2.97917 6.45573,-1.84115 5.92969,-1.05469 C5.40365,-0.268229 4.625,0.125 3.59375,0.125 C2.57292,0.125 1.80469,-0.265625 1.28906,-1.04688 C0.773438,-1.82813 0.515625,-2.96875 0.515625,-4.46875 C0.515625,-6.01042 0.765625,-7.16406 1.26563,-7.92969 C1.76563,-8.69531 2.55729,-9.07813 3.64063,-9.07813 C4.69271,-9.07813 5.46875,-8.6901 5.96875,-7.91406 C6.46875,-7.13802 6.71875,-5.98958 6.71875,-4.46875 M5.5625,-4.46875 C5.5625,-5.76042 5.41406,-6.69792 5.11719,-7.28125 C4.82031,-7.86458 4.32813,-8.15625 3.64063,-8.15625 C2.93229,-8.15625 2.42448,-7.86979 2.11719,-7.29688 C1.8099,-6.72396 1.65625,-5.78125 1.65625,-4.46875 C1.65625,-3.20833 1.8125,-2.28385 2.125,-1.69531 C2.4375,-1.10677 2.93229,-0.8125 3.60938,-0.8125 C4.28646,-0.8125 4.78125,-1.11198 5.09375,-1.71094 C5.40625,-2.3099 5.5625,-3.22917 5.5625,-4.46875 M8.40625,0 L8.40625,-1.39063 L9.64063,-1.39063 L9.64063,0 L8.40625,0 M16.4219,-2.03125 L16.4219,0 L15.3438,0 L15.3438,-2.03125 L11.125,-2.03125 L11.125,-2.90625 L15.2188,-8.9375 L16.4219,-8.9375 L16.4219,-2.92188 L17.6719,-2.92188 L17.6719,-2.03125 L16.4219,-2.03125 M15.3438,-7.65625 C15.3333,-7.63542 15.2734,-7.52344 15.1641,-7.32031 C15.0547,-7.11719 14.974,-6.97917 14.9219,-6.90625 L12.625,-3.51563 L12.2813,-3.04688 L12.1875,-2.92188 L15.3438,-2.92188 L15.3438,-7.65625"/>
</g>

<g fill="#212121" fill-opacity="1" stroke="none" transform="matrix(0.749604,0,0,0.750583,409.326,307.988)"
font-family="Sans Serif" font-size="9" font-weight="400" font-style="normal" 
>
<path vector-effect="none" fill-rule="evenodd" d="M6.71875,-4.46875 C6.71875,-2.97917 6.45573,-1.84115 5.92969,-1.05469 C5.40365,-0.268229 4.625,0.125 3.59375,0.125 C2.57292,0.125 1.80469,-0.265625 1.28906,-1.04688 C0.773438,-1.82813 0.515625,-2.96875 0.515625,-4.46875 C0.515625,-6.01042 0.765625,-7.16406 1.26563,-7.92969 C1.76563,-8.69531 2.55729,-9.07813 3.64063,-9.07813 C4.69271,-9.07813 5.46875,-8.6901 5.96875,-7.91406 C6.46875,-7.13802 6.71875,-5.98958 6.71875,-4.46875 M5.5625,-4.46875 C5.5625,-5.76042 5.41406,-6.69792 5.11719,-7.28125 C4.82031,-7.86458 4.32813,-8.15625 3.64063,-8.15625 C2.93229,-8.15625 2.42448,-7.86979 2.11719,-7.29688 C1.8099,-6.72396 1.65625,-5.78125 1.65625,-4.46875 C1.65625,-3.20833 1.8125,-2.28385 2.125,-1.69531 C2.4375,-1.10677 2.93229,-0.8125 3.60938,-0.8125 C4.28646,-0.8125 4.78125,-1.11198 5.09375,-1.71094 C5.40625,-2.3099 5.5625,-3.22917 5.5625,-4.46875 M8.40625,0 L8.40625,-1.39063 L9.64063,-1.39063 L9.64063,0 L8.40625,0 M16.4219,-2.03125 L16.4219,0 L15.3438,0 L15.3438,-2.03125 L11.125,-2.03125 L11.125,-2.90625 L15.2188,-8.9375 L16.4219,-8.9375 L16.4219,-2.92188 L17.6719,-2.92188 L17.6719,-2.03125 L16.4219,-2.03125 M15.3438,-7.65625 C15.3333,-7.63542 15.2734,-7.52344 15.1641,-7.32031 C15.0547,-7.11719 14.974,-6.97917 14.9219,-6.90625 L12.625,-3.51563 L12.2813,-3.04688 L12.1875,-2.92188 L15.3438,-2.92188 L15.3438,-7.65625 M24.7344,-2.90625 C24.7344,-1.96875 24.4531,-1.22917 23.8906,-0.6875 C23.3281,-0.145833 22.5521,0.125 21.5625,0.125 C20.7292,0.125 20.0547,-0.0572917 19.5391,-0.421875 C19.0234,-0.786458 18.6979,-1.3125 18.5625,-2 L19.7188,-2.14063 C19.9583,-1.25521 20.5781,-0.8125 21.5781,-0.8125 C22.1927,-0.8125 22.6745,-0.997396 23.0234,-1.36719 C23.3724,-1.73698 23.5469,-2.24479 23.5469,-2.89063 C23.5469,-3.45313 23.3724,-3.90885 23.0234,-4.25781 C22.6745,-4.60677 22.2031,-4.78125 21.6094,-4.78125 C21.2969,-4.78125 21.0078,-4.73177 20.7422,-4.63281 C20.4766,-4.53385 20.2083,-4.36458 19.9375,-4.125 L18.8281,-4.125 L19.125,-8.9375 L24.2031,-8.9375 L24.2031,-7.96875 L20.1719,-7.96875 L20,-5.14063 C20.4896,-5.51563 21.1042,-5.70313 21.8438,-5.70313 C22.7188,-5.70313 23.4193,-5.44531 23.9453,-4.92969 C24.4714,-4.41406 24.7344,-3.73958 24.7344,-2.90625 "/>
</g>

<g fill="#212121" fill-opacity="1" stroke="none" transform="matrix(0.749604,0,0,0.750583,461.257,307.988)"
font-family="Sans Serif" font-size="9" font-weight="400" font-style="normal" 
>
<path vector-effect="none" fill-rule="evenodd" d="M6.71875,-4.46875 C6.71875,-2.97917 6.45573,-1.84115 5.92969,-1.05469 C5.40365,-0.268229 4.625,0.125 3.59375,0.125 C2.57292,0.125 1.80469,-0.265625 1.28906,-1.04688 C0.773438,-1.82813 0.515625,-2.96875 0.515625,-4.46875 C0.515625,-6.01042 0.765625,-7.16406 1.26563,-7.92969 C1.76563,-8.69531 2.55729,-9.07813 3.64063,-9.07813 C4.69271,-9.07813 5.46875,-8.6901 5.96875,-7.91406 C6.46875,-7.13802 6.71875,-5.98958 6.71875,-4.46875 M5.5625,-4.46875 C5.5625,-5.76042 5.41406,-6.69792 5.11719,-7.28125 C4.82031,-7.86458 4.32813,-8.15625 3.64063,-8.15625 C2.93229,-8.15625 2.42448,-7.86979 2.11719,-7.29688 C1.8099,-6.72396 1.65625,-5.78125 1.65625,-4.46875 C1.65625,-3.20833 1.8125,-2.28385 2.125,-1.69531 C2.4375,-1.10677 2.93229,-0.8125 3.60938,-0.8125 C4.28646,-0.8125 4.78125,-1.11198 5.09375,-1.71094 C5.40625,-2.3099 5.5625,-3.22917 5.5625,-4.46875 M8.40625,0 L8.40625,-1.39063 L9.64063,-1.39063 L9.64063,0 L8.40625,0 M17.5156,-2.90625 C17.5156,-1.96875 17.2344,-1.22917 16.6719,-0.6875 C16.1094,-0.145833 15.3333,0.125 14.3438,0.125 C13.5104,0.125 12.8359,-0.0572917 12.3203,-0.421875 C11.8047,-0.786458 11.4792,-1.3125 11.3438,-2 L12.5,-2.14063 C12.7396,-1.25521 13.3594,-0.8125 14.3594,-0.8125 C14.974,-0.8125 15.4557,-0.997396 15.8047,-1.36719 C16.1536,-1.73698 16.3281,-2.24479 16.3281,-2.89063 C16.3281,-3.45313 16.1536,-3.90885 15.8047,-4.25781 C15.4557,-4.60677 14.9844,-4.78125 14.3906,-4.78125 C14.0781,-4.78125 13.7891,-4.73177 13.5234,-4.63281 C13.2578,-4.53385 12.9896,-4.36458 12.7188,-4.125 L11.6094,-4.125 L11.9063,-8.9375 L16.9844,-8.9375 L16.9844,-7.96875 L12.9531,-7.96875 L12.7813,-5.14063 C13.2708,-5.51563 13.8854,-5.70313 14.625,-5.70313 C15.5,-5.70313 16.2005,-5.44531 16.7266,-4.92969 C17.2526,-4.41406 17.5156,-3.73958 17.5156,-2.90625 "/>
</g>

<g fill="#212121" fill-opacity="1" stroke="#212121" stroke-opacity="1" stroke-width="0.666667" stroke-linecap="square" stroke-linejoin="round" transform="matrix(0.749604,0,0,0.750583,-49.9728,-12.0105)"
font-family="Sans Serif" font-size="9" font-weight="400" font-style="normal" 
>
<polyline fill="none" vector-effect="none" points="99,409 99,34 " />
<polyline fill="none" vector-effect="none" points="691,409 691,34 " />
<polyline fill="none" vector-effect="none" points="99,409 104.92,409 " />
<polyline fill="none" vector-effect="none" points="99,346.5 104.92,346.5 " />
<polyline fill="none" vector-effect="none" points="99,284 104.92,284 " />
<polyline fill="none" vector-effect="none" points="99,221.5 104.92,221.5 " />
<polyline fill="none" vector-effect="none" points="99,159 104.92,159 " />
<polyline fill="none" vector-effect="none" points="99,96.5 104.92,96.5 " />
<polyline fill="none" vector-effect="none" points="99,34 104.92,34 " />
<polyline fill="none" vector-effect="none" points="691,409 685.08,409 " />
<polyline fill="none" vector-effect="none" points="691,346.5 685.08,346.5 " />
<polyline fill="none" vector-effect="none" points="691,284 685.08,284 " />
<polyline fill="none" vector-effect="none" points="691,221.5 685.08,221.5 " />
<polyline fill="none" vector-effect="none" points="691,159 685.08,159 " />
<polyline fill="none" vector-effect="none" points="691,96.5 685.08,96.5 " />
<polyline fill="none" vector-effect="none" points="691,34 685.08,34 " />
</g>

<g fill="#212121" fill-opacity="1" stroke="none" transform="matrix(0.749604,0,0,0.750583,14.9929,298.356)"
font-family="Sans Serif" font-size="9" font-weight="400" font-style="normal" 
>
<path vector-effect="none" fill-rule="evenodd" d="M6.71875,-4.46875 C6.71875,-2.97917 6.45573,-1.84115 5.92969,-1.05469 C5.40365,-0.268229 4.625,0.125 3.59375,0.125 C2.57292,0.125 1.80469,-0.265625 1.28906,-1.04688 C0.773438,-1.82813 0.515625,-2.96875 0.515625,-4.46875 C0.515625,-6.01042 0.765625,-7.16406 1.26563,-7.92969 C1.76563,-8.69531 2.55729,-9.07813 3.64063,-9.07813 C4.69271,-9.07813 5.46875,-8.6901 5.96875,-7.91406 C6.46875,-7.13802 6.71875,-5.98958 6.71875,-4.46875 M5.5625,-4.46875 C5.5625,-5.76042 5.41406,-6.69792 5.11719,-7.28125 C4.82031,-7.86458 4.32813,-8.15625 3.64063,-8.15625 C2.93229,-8.15625 2.42448,-7.86979 2.11719,-7.29688 C1.8099,-6.72396 1.65625,-5.78125 1.65625,-4.46875 C1.65625,-3.20833 1.8125,-2.28385 2.125,-1.69531 C2.4375,-1.10677 2.93229,-0.8125 3.60938,-0.8125 C4.28646,-0.8125 4.78125,-1.11198 5.09375,-1.71094 C5.40625,-2.3099 5.5625,-3.22917 5.5625,-4.46875 "/>
</g>

<g fill="#212121" fill-opacity="1" stroke="none" transform="matrix(0.749604,0,0,0.750583,14.9929,251.444)"
font-family="Sans Serif" font-size="9" font-weight="400" font-style="normal" 
>
<path vector-effect="none" fill-rule="evenodd" d="M0.984375,0 L0.984375,-0.96875 L3.26563,-0.96875 L3.26563,-7.85938 L1.25,-6.40625 L1.25,-7.48438 L3.35938,-8.9375 L4.42188,-8.9375 L4.42188,-0.96875 L6.59375,-0.96875 L6.59375,0 L0.984375,0"/>
</g>

<g fill="#212121" fill-opacity="1" stroke="none" transform="matrix(0.749604,0,0,0.750583,14.9929,204.533)"
font-family="Sans Serif" font-size="9" font-weight="400" font-style="normal" 
>
<path vector-effect="none" fill-rule="evenodd" d="M0.65625,0 L0.65625,-0.8125 C0.875,-1.30208 1.13802,-1.73698 1.44531,-2.11719 C1.7526,-2.4974 2.07813,-2.84115 2.42188,-3.14844 C2.76563,-3.45573 3.10677,-3.73958 3.44531,-4 C3.78385,-4.26042 4.08854,-4.52344 4.35938,-4.78906 C4.63021,-5.05469 4.84896,-5.33073 5.01563,-5.61719 C5.18229,-5.90365 5.26563,-6.22917 5.26563,-6.59375 C5.26563,-7.08333 5.1224,-7.46354 4.83594,-7.73438 C4.54948,-8.00521 4.14583,-8.14063 3.625,-8.14063 C3.14583,-8.14063 2.7474,-8.00781 2.42969,-7.74219 C2.11198,-7.47656 1.92708,-7.10417 1.875,-6.625 L0.703125,-6.73438 C0.786458,-7.45313 1.09115,-8.02344 1.61719,-8.44531 C2.14323,-8.86719 2.8125,-9.07813 3.625,-9.07813 C4.53125,-9.07813 5.22656,-8.86458 5.71094,-8.4375 C6.19531,-8.01042 6.4375,-7.40625 6.4375,-6.625 C6.4375,-6.28125 6.35677,-5.9375 6.19531,-5.59375 C6.03385,-5.25 5.79688,-4.90625 5.48438,-4.5625 C5.17188,-4.21875 4.57292,-3.6875 3.6875,-2.96875 C3.20833,-2.57292 2.82292,-2.21615 2.53125,-1.89844 C2.23958,-1.58073 2.03125,-1.27083 1.90625,-0.96875 L6.57813,-0.96875 L6.57813,0 L0.65625,0"/>
</g>

<g fill="#212121" fill-opacity="1" stroke="none" transform="matrix(0.749604,0,0,0.750583,14.9929,157.621)"
font-family="Sans Serif" font-size="9" font-weight="400" font-style="normal" 
>
<path vector-effect="none" fill-rule="evenodd" d="M6.65625,-2.46875 C6.65625,-1.64583 6.39323,-1.00781 5.86719,-0.554688 C5.34115,-0.101563 4.59375,0.125 3.625,0.125 C2.71875,0.125 1.99479,-0.078125 1.45313,-0.484375 C0.911458,-0.890625 0.59375,-1.49479 0.5,-2.29688 L1.67188,-2.40625 C1.82813,-1.34375 2.47917,-0.8125 3.625,-0.8125 C4.19792,-0.8125 4.64844,-0.955729 4.97656,-1.24219 C5.30469,-1.52865 5.46875,-1.94792 5.46875,-2.5 C5.46875,-2.98958 5.28125,-3.3724 4.90625,-3.64844 C4.53125,-3.92448 3.98958,-4.0625 3.28125,-4.0625 L2.64063,-4.0625 L2.64063,-5.04688 L3.26563,-5.04688 C3.89063,-5.04688 4.375,-5.18229 4.71875,-5.45313 C5.0625,-5.72396 5.23438,-6.10417 5.23438,-6.59375 C5.23438,-7.07292 5.09375,-7.45052 4.8125,-7.72656 C4.53125,-8.0026 4.11458,-8.14063 3.5625,-8.14063 C3.0625,-8.14063 2.65625,-8.01042 2.34375,-7.75 C2.03125,-7.48958 1.84896,-7.125 1.79688,-6.65625 L0.640625,-6.75 C0.734375,-7.47917 1.04167,-8.04948 1.5625,-8.46094 C2.08333,-8.8724 2.75521,-9.07813 3.57813,-9.07813 C4.47396,-9.07813 5.16927,-8.86979 5.66406,-8.45313 C6.15885,-8.03646 6.40625,-7.45313 6.40625,-6.70313 C6.40625,-6.14063 6.2474,-5.67969 5.92969,-5.32031 C5.61198,-4.96094 5.14583,-4.71875 4.53125,-4.59375 L4.53125,-4.5625 C5.20833,-4.48958 5.73177,-4.26563 6.10156,-3.89063 C6.47135,-3.51563 6.65625,-3.04167 6.65625,-2.46875 "/>
</g>

<g fill="#212121" fill-opacity="1" stroke="none" transform="matrix(0.749604,0,0,0.750583,14.9929,110.71)"
font-family="Sans Serif" font-size="9" font-weight="400" font-style="normal" 
>
<path vector-effect="none" fill-rule="evenodd" d="M5.59375,-2.03125 L5.59375,0 L4.51563,0 L4.51563,-2.03125 L0.296875,-2.03125 L0.296875,-2.90625 L4.39063,-8.9375 L5.59375,-8.9375 L5.59375,-2.92188 L6.84375,-2.92188 L6.84375,-2.03125 L5.59375,-2.03125 M4.51563,-7.65625 C4.50521,-7.63542 4.44531,-7.52344 4.33594,-7.32031 C4.22656,-7.11719 4.14583,-6.97917 4.09375,-6.90625 L1.79688,-3.51563 L1.45313,-3.04688 L1.35938,-2.92188 L4.51563,-2.92188 L4.51563,-7.65625"/>
</g>

<g fill="#212121" fill-opacity="1" stroke="none" transform="matrix(0.749604,0,0,0.750583,14.9929,63.7984)"
font-family="Sans Serif" font-size="9" font-weight="400" font-style="normal" 
>
<path vector-effect="none" fill-rule="evenodd" d="M6.6875,-2.90625 C6.6875,-1.96875 6.40625,-1.22917 5.84375,-0.6875 C5.28125,-0.145833 4.50521,0.125 3.51563,0.125 C2.68229,0.125 2.00781,-0.0572917 1.49219,-0.421875 C0.976563,-0.786458 0.651042,-1.3125 0.515625,-2 L1.67188,-2.14063 C1.91146,-1.25521 2.53125,-0.8125 3.53125,-0.8125 C4.14583,-0.8125 4.6276,-0.997396 4.97656,-1.36719 C5.32552,-1.73698 5.5,-2.24479 5.5,-2.89063 C5.5,-3.45313 5.32552,-3.90885 4.97656,-4.25781 C4.6276,-4.60677 4.15625,-4.78125 3.5625,-4.78125 C3.25,-4.78125 2.96094,-4.73177 2.69531,-4.63281 C2.42969,-4.53385 2.16146,-4.36458 1.89063,-4.125 L0.78125,-4.125 L1.07813,-8.9375 L6.15625,-8.9375 L6.15625,-7.96875 L2.125,-7.96875 L1.95313,-5.14063 C2.44271,-5.51563 3.05729,-5.70313 3.79688,-5.70313 C4.67188,-5.70313 5.3724,-5.44531 5.89844,-4.92969 C6.42448,-4.41406 6.6875,-3.73958 6.6875,-2.90625 "/>
</g>

<g fill="#212121" fill-opacity="1" stroke="none" transform="matrix(0.749604,0,0,0.750583,14.9929,16.8869)"
font-family="Sans Serif" font-size="9" font-weight="400" font-style="normal" 
>
<path vector-effect="none" fill-rule="evenodd" d="M6.65625,-2.92188 C6.65625,-1.98438 6.40104,-1.24219 5.89063,-0.695313 C5.38021,-0.148438 4.67188,0.125 3.76563,0.125 C2.76563,0.125 1.9974,-0.25 1.46094,-1 C0.924479,-1.75 0.65625,-2.83854 0.65625,-4.26563 C0.65625,-5.81771 0.934896,-7.00781 1.49219,-7.83594 C2.04948,-8.66406 2.83854,-9.07813 3.85938,-9.07813 C5.21354,-9.07813 6.0625,-8.46875 6.40625,-7.25 L5.3125,-7.0625 C5.09375,-7.79167 4.60417,-8.15625 3.84375,-8.15625 C3.19792,-8.15625 2.69531,-7.85156 2.33594,-7.24219 C1.97656,-6.63281 1.79688,-5.75521 1.79688,-4.60938 C2.00521,-4.99479 2.29688,-5.28646 2.67188,-5.48438 C3.04688,-5.68229 3.47917,-5.78125 3.96875,-5.78125 C4.79167,-5.78125 5.44531,-5.52344 5.92969,-5.00781 C6.41406,-4.49219 6.65625,-3.79688 6.65625,-2.92188 M5.5,-2.875 C5.5,-3.52083 5.34115,-4.02083 5.02344,-4.375 C4.70573,-4.72917 4.26042,-4.90625 3.6875,-4.90625 C3.15625,-4.90625 2.72656,-4.75 2.39844,-4.4375 C2.07031,-4.125 1.90625,-3.69792 1.90625,-3.15625 C1.90625,-2.45833 2.07813,-1.89063 2.42188,-1.45313 C2.76563,-1.01563 3.20313,-0.796875 3.73438,-0.796875 C4.28646,-0.796875 4.71875,-0.981771 5.03125,-1.35156 C5.34375,-1.72135 5.5,-2.22917 5.5,-2.875 "/>
</g>

<g fill="#212121" fill-opacity="1" stroke="none" transform="matrix(0,-0.750583,0.749604,0,8.99604,165.878)"
font-family="Sans Serif" font-size="9" font-weight="400" font-style="normal" 
>
<path vector-effect="none" fill-rule="evenodd" d="M1.15625,0 L1.15625,-9.625 L8.45313,-9.625 L8.45313,-8.5625 L2.45313,-8.5625 L2.45313,-5.46875 L8.04688,-5.46875 L8.04688,-4.42188 L2.45313,-4.42188 L2.45313,-1.0625 L8.73438,-1.0625 L8.73438,0 L1.15625,0 M10.2969,0 L10.2969,-5.67188 C10.2969,-6.19271 10.2865,-6.76563 10.2656,-7.39063 L11.4219,-7.39063 C11.4531,-6.55729 11.4688,-6.05729 11.4688,-5.89063 L11.5,-5.89063 C11.6979,-6.52604 11.9245,-6.95833 12.1797,-7.1875 C12.4349,-7.41667 12.7969,-7.53125 13.2656,-7.53125 C13.4219,-7.53125 13.5885,-7.51042 13.7656,-7.46875 L13.7656,-6.34375 C13.599,-6.38542 13.3802,-6.40625 13.1094,-6.40625 C12.599,-6.40625 12.2083,-6.1875 11.9375,-5.75 C11.6667,-5.3125 11.5313,-4.68229 11.5313,-3.85938 L11.5313,0 L10.2969,0 M14.9531,0 L14.9531,-5.67188 C14.9531,-6.19271 14.9427,-6.76563 14.9219,-7.39063 L16.0781,-7.39063 C16.1094,-6.55729 16.125,-6.05729 16.125,-5.89063 L16.1563,-5.89063 C16.3542,-6.52604 16.5807,-6.95833 16.8359,-7.1875 C17.0911,-7.41667 17.4531,-7.53125 17.9219,-7.53125 C18.0781,-7.53125 18.2448,-7.51042 18.4219,-7.46875 L18.4219,-6.34375 C18.2552,-6.38542 18.0365,-6.40625 17.7656,-6.40625 C17.2552,-6.40625 16.8646,-6.1875 16.5938,-5.75 C16.3229,-5.3125 16.1875,-4.68229 16.1875,-3.85938 L16.1875,0 L14.9531,0 M25.8438,-3.70313 C25.8438,-2.41146 25.5573,-1.44792 24.9844,-0.8125 C24.4115,-0.177083 23.5833,0.140625 22.5,0.140625 C21.4271,0.140625 20.6146,-0.190104 20.0625,-0.851563 C19.5104,-1.51302 19.2344,-2.46354 19.2344,-3.70313 C19.2344,-6.25521 20.3385,-7.53125 22.5469,-7.53125 C23.6719,-7.53125 24.5026,-7.22135 25.0391,-6.60156 C25.5755,-5.98177 25.8438,-5.01563 25.8438,-3.70313 M24.5469,-3.70313 C24.5469,-4.72396 24.3958,-5.46615 24.0938,-5.92969 C23.7917,-6.39323 23.2813,-6.625 22.5625,-6.625 C21.8438,-6.625 21.3229,-6.38802 21,-5.91406 C20.6771,-5.4401 20.5156,-4.70313 20.5156,-3.70313 C20.5156,-2.73438 20.6745,-2.0026 20.9922,-1.50781 C21.3099,-1.01302 21.8073,-0.765625 22.4844,-0.765625 C23.224,-0.765625 23.7526,-1.0026 24.0703,-1.47656 C24.388,-1.95052 24.5469,-2.69271 24.5469,-3.70313 M27.3906,0 L27.3906,-5.67188 C27.3906,-6.19271 27.3802,-6.76563 27.3594,-7.39063 L28.5156,-7.39063 C28.5469,-6.55729 28.5625,-6.05729 28.5625,-5.89063 L28.5938,-5.89063 C28.7917,-6.52604 29.0182,-6.95833 29.2734,-7.1875 C29.5286,-7.41667 29.8906,-7.53125 30.3594,-7.53125 C30.5156,-7.53125 30.6823,-7.51042 30.8594,-7.46875 L30.8594,-6.34375 C30.6927,-6.38542 30.474,-6.40625 30.2031,-6.40625 C29.6927,-6.40625 29.3021,-6.1875 29.0313,-5.75 C28.7604,-5.3125 28.625,-4.68229 28.625,-3.85938 L28.625,0 L27.3906,0"/>
</g>

<g fill="#212121" fill-opacity="1" stroke="none" transform="matrix(0.749604,0,0,0.750583,21.9892,11.2576)"
font-family="Sans Serif" font-size="9" font-weight="400" font-style="normal" 
>
<path vector-effect="none" fill-rule="evenodd" d="M1.90625,-0.375 C1.90625,-0.4375 1.92708,-0.5 1.96875,-0.5625 L4.67188,-3.25 L1.96875,-5.95313 C1.92708,-5.99479 1.90625,-6.05208 1.90625,-6.125 C1.90625,-6.1875 1.93229,-6.2474 1.98438,-6.30469 C2.03646,-6.36198 2.09896,-6.39063 2.17188,-6.39063 C2.23438,-6.39063 2.30208,-6.35938 2.375,-6.29688 L5.0625,-3.60938 L7.73438,-6.29688 C7.80729,-6.35938 7.86979,-6.39063 7.92188,-6.39063 C7.99479,-6.39063 8.05729,-6.36458 8.10938,-6.3125 C8.16146,-6.26042 8.1875,-6.19792 8.1875,-6.125 C8.1875,-6.05208 8.16667,-5.99479 8.125,-5.95313 L5.42188,-3.25 L8.125,-0.5625 C8.16667,-0.5 8.1875,-0.4375 8.1875,-0.375 C8.1875,-0.302083 8.16146,-0.239583 8.10938,-0.1875 C8.05729,-0.135417 7.99479,-0.109375 7.92188,-0.109375 C7.85938,-0.109375 7.79688,-0.140625 7.73438,-0.203125 L5.0625,-2.89063 L2.375,-0.203125 C2.30208,-0.140625 2.23438,-0.109375 2.17188,-0.109375 C2.09896,-0.109375 2.03646,-0.138021 1.98438,-0.195313 C1.93229,-0.252604 1.90625,-0.3125 1.90625,-0.375 "/>
</g>

<g fill="#212121" fill-opacity="1" stroke="none" transform="matrix(0.749604,0,0,0.750583,29.4852,11.2576)"
font-family="Sans Serif" font-size="9" font-weight="400" font-style="normal" 
>
<path vector-effect="none" fill-rule="evenodd" d="M0.984375,0 L0.984375,-0.96875 L3.26563,-0.96875 L3.26563,-7.85938 L1.25,-6.40625 L1.25,-7.48438 L3.35938,-8.9375 L4.42188,-8.9375 L4.42188,-0.96875 L6.59375,-0.96875 L6.59375,0 L0.984375,0 M13.9375,-4.46875 C13.9375,-2.97917 13.6745,-1.84115 13.1484,-1.05469 C12.6224,-0.268229 11.8438,0.125 10.8125,0.125 C9.79167,0.125 9.02344,-0.265625 8.50781,-1.04688 C7.99219,-1.82813 7.73438,-2.96875 7.73438,-4.46875 C7.73438,-6.01042 7.98438,-7.16406 8.48438,-7.92969 C8.98438,-8.69531 9.77604,-9.07813 10.8594,-9.07813 C11.9115,-9.07813 12.6875,-8.6901 13.1875,-7.91406 C13.6875,-7.13802 13.9375,-5.98958 13.9375,-4.46875 M12.7813,-4.46875 C12.7813,-5.76042 12.6328,-6.69792 12.3359,-7.28125 C12.0391,-7.86458 11.5469,-8.15625 10.8594,-8.15625 C10.151,-8.15625 9.64323,-7.86979 9.33594,-7.29688 C9.02865,-6.72396 8.875,-5.78125 8.875,-4.46875 C8.875,-3.20833 9.03125,-2.28385 9.34375,-1.69531 C9.65625,-1.10677 10.151,-0.8125 10.8281,-0.8125 C11.5052,-0.8125 12,-1.11198 12.3125,-1.71094 C12.625,-2.3099 12.7813,-3.22917 12.7813,-4.46875 "/>
</g>

<g fill="#212121" fill-opacity="1" stroke="none" transform="matrix(0.749604,0,0,0.750583,39.9797,6.75408)"
font-family="Sans Serif" font-size="9" font-weight="400" font-style="normal" 
>
<path vector-effect="none" fill-rule="evenodd" d="M0.4375,-2.26563 L0.4375,-3.04688 L2.89063,-3.04688 L2.89063,-2.26563 L0.4375,-2.26563 M7.625,-1.5625 L7.625,0 L6.79688,0 L6.79688,-1.5625 L3.5625,-1.5625 L3.5625,-2.23438 L6.70313,-6.875 L7.625,-6.875 L7.625,-2.25 L8.59375,-2.25 L8.59375,-1.5625 L7.625,-1.5625 M6.79688,-5.89063 C6.79688,-5.86979 6.7526,-5.78385 6.66406,-5.63281 C6.57552,-5.48177 6.51042,-5.375 6.46875,-5.3125 L4.70313,-2.70313 L4.45313,-2.34375 L4.375,-2.25 L6.79688,-2.25 L6.79688,-5.89063"/>
</g>

<g fill="none" stroke="#0000ff" stroke-opacity="1" stroke-width="0.666667" stroke-linecap="butt" stroke-linejoin="round" transform="matrix(0.749604,0,0,0.750583,-49.9728,-12.0105)"
font-family="Sans Serif" font-size="9" font-weight="400" font-style="normal" 
>
<polyline fill="none" vector-effect="none" points="99,68.4859 112.156,133.459 125.311,179.196 138.467,213.159 151.622,239.385 164.778,260.251 177.933,277.249 191.089,291.364 204.244,303.272 217.4,313.454 230.556,322.261 243.711,329.952 256.867,336.728 270.022,342.743 283.178,348.118 296.333,352.95 309.489,357.318 322.644,361.285 335.8,364.904 348.956,368.219 362.111,371.267 375.267,374.079 388.422,376.681 401.578,379.096 414.733,381.343 427.889,383.439 441.044,385.4 454.2,387.237 467.356,388.962 480.511,390.585 493.667,392.115 506.822,393.559 519.978,394.925 533.133,396.218 546.289,397.445 559.444,398.611 572.6,399.719 585.756,400.774 598.911,401.78 612.067,402.74 625.222,403.656 638.378,404.523 651.533,405.255 664.689,405.08 677.844,397.711 691,336.501 " />
</g>

<g fill="#dd5400" fill-opacity="1" stroke="#dd5400" stroke-opacity="1" stroke-dasharray="10,6" stroke-dashoffset="0" stroke-width="0.666667" stroke-linecap="butt" stroke-linejoin="round" transform="matrix(0.749604,0,0,0.750583,-49.9728,-12.0105)"
font-family="Sans Serif" font-size="9" font-weight="400" font-style="normal" 
>
<polyline fill="none" vector-effect="none" points="99,336.5 691,336.5 " />
</g>
</g>
</svg>
